<svg viewBox="0 0 800 560" xmlns="http://www.w3.org/2000/svg" font-family="-apple-system, &#39;Segoe UI&#39;, Roboto, sans-serif" role="img" aria-label="화면 M — 일정 생성 모달 와이어프레임">
  

  
  <rect class="bg" x="0" y="0" width="800" height="560"></rect>
  <text class="cap" x="24" y="30">«화면 M» 일정 생성 모달 — ScheduleModal</text>
  
  <rect class="dim" x="24" y="44" width="752" height="496" rx="6"></rect>
  
  <rect class="surface" x="220" y="92" width="360" height="400" rx="12"></rect>
  <text class="tx" x="248" y="132" font-size="16" font-weight="700">새 여행 일정 만들기</text>
  <text x="552" y="132" class="mut" font-size="16">✕</text>
  <line x1="220" y1="148" x2="580" y2="148" stroke="#ECEAE3"></line>
  <text class="lbl" x="248" y="184">여행 제목</text>
  <rect class="surface" x="248" y="192" width="304" height="36" rx="6"></rect><rect class="bd" x="248" y="192" width="304" height="36" rx="6"></rect>
  <text class="mut" x="262" y="215">예) 제주 3박4일</text>
  <text class="lbl" x="248" y="256">여행 기간</text>
  <rect class="surface" x="248" y="264" width="146" height="36" rx="6"></rect><rect class="bd" x="248" y="264" width="146" height="36" rx="6"></rect><text class="mut" x="262" y="287">시작일 📅</text>
  <rect class="surface" x="406" y="264" width="146" height="36" rx="6"></rect><rect class="bd" x="406" y="264" width="146" height="36" rx="6"></rect><text class="mut" x="420" y="287">종료일 📅</text>
  <text class="lbl" x="248" y="328">인원</text>
  <rect class="surface" x="248" y="336" width="304" height="36" rx="6"></rect><rect class="bd" x="248" y="336" width="304" height="36" rx="6"></rect>
  <text class="tx" x="262" y="359">－   2 명   ＋</text>
  
  <rect class="ghost" x="248" y="420" width="146" height="42" rx="6"></rect><text class="ghosttx" x="321" y="446" text-anchor="middle">취소</text>
  <rect class="btn" x="406" y="420" width="146" height="42" rx="6"></rect><text class="btntx" x="479" y="446" text-anchor="middle">만들기</text>
</svg>