<svg viewBox="0 0 1000 720" xmlns="http://www.w3.org/2000/svg" font-family="-apple-system, &#39;Segoe UI&#39;, Roboto, sans-serif" role="img" aria-label="화면 D — 로그인/회원가입 와이어프레임">
  

  
  <rect class="bg" x="0" y="0" width="1000" height="720"></rect>
  <text class="cap" x="24" y="30">«화면 D» 로그인 / 회원가입 — AuthView</text>
  
  <rect class="surface" x="330" y="120" width="340" height="470" rx="12"></rect><rect class="bd" x="330" y="120" width="340" height="470" rx="12"></rect>
  <text x="500" y="170" text-anchor="middle" fill="#534AB7" font-size="22" font-weight="700">TripCraft</text>
  <text x="500" y="194" text-anchor="middle" class="mut">여행을 설계하는 가장 스마트한 방법</text>
  
  <rect class="tabon" x="362" y="216" width="138" height="34" rx="6"></rect><text class="tabontx" x="412" y="238" text-anchor="middle">로그인</text>
  <rect class="taboff" x="500" y="216" width="138" height="34" rx="6"></rect><text class="tabofftx" x="569" y="238" text-anchor="middle">회원가입</text>
  
  <text class="lbl" x="362" y="288">이메일</text>
  <rect class="surface" x="362" y="296" width="276" height="36" rx="6"></rect><rect class="bd" x="362" y="296" width="276" height="36" rx="6"></rect>
  <text class="mut" x="376" y="319">you@example.com</text>
  <text class="lbl" x="362" y="358">비밀번호</text>
  <rect class="surface" x="362" y="366" width="276" height="36" rx="6"></rect><rect class="bd" x="362" y="366" width="276" height="36" rx="6"></rect>
  <text class="mut" x="376" y="389">••••••••</text>
  
  <rect class="btn" x="362" y="424" width="276" height="40" rx="6"></rect><text class="btntx" x="500" y="449" text-anchor="middle">로그인</text>
  
  <line x1="362" y1="490" x2="490" y2="490" stroke="#D3D1C7"></line><text class="mut" x="500" y="494" text-anchor="middle">또는</text><line x1="510" y1="490" x2="638" y2="490" stroke="#D3D1C7"></line>
  
  <rect class="kakao" x="362" y="510" width="276" height="40" rx="6"></rect><text class="kakaotx" x="500" y="535" text-anchor="middle">💬  카카오로 시작하기</text>
  <text class="mut" x="500" y="576" text-anchor="middle">계정이 없으신가요? 회원가입</text>
</svg>