<svg viewBox="0 0 1280 800" xmlns="http://www.w3.org/2000/svg" font-family="-apple-system, &#39;Segoe UI&#39;, Roboto, sans-serif" role="img" aria-label="화면 A — 관광지 탐색 와이어프레임">
  

  
  <rect class="bg" x="0" y="0" width="1280" height="800"></rect>
  <text class="cap" x="24" y="30">«화면 A» 관광지 탐색 — ExploreView (/discover)</text>
  
  <rect class="hdr" x="24" y="44" width="1232" height="48" rx="6"></rect>
  <text class="hdrtx" x="44" y="74">TripCraft</text>
  <text class="hdrtx" x="930" y="74" font-weight="400" font-size="13">여행 작업실 · 여행 이야기 · 마이페이지</text>
  
  <rect class="surface" x="24" y="104" width="430" height="672" rx="6"></rect>
  <rect class="bd" x="24" y="104" width="430" height="672" rx="6"></rect>
  <text class="lbl" x="44" y="134">검색</text>
  <rect class="surface" x="44" y="142" width="390" height="34" rx="6"></rect><rect class="bd" x="44" y="142" width="390" height="34" rx="6"></rect>
  <text class="mut" x="56" y="164">관광지·지역 검색…</text>
  <text class="lbl" x="44" y="200">지역 · 시군구</text>
  <rect class="chip" x="44" y="210" width="62" height="24" rx="12"></rect><text class="chiptx" x="60" y="226">서울</text>
  <rect class="chip" x="114" y="210" width="62" height="24" rx="12"></rect><text class="chiptx" x="130" y="226">부산</text>
  <rect class="chip" x="184" y="210" width="62" height="24" rx="12"></rect><text class="chiptx" x="200" y="226">제주</text>
  <text class="lbl" x="44" y="266">카테고리</text>
  <rect class="chip" x="44" y="276" width="70" height="24" rx="12"></rect><text class="chiptx" x="56" y="292">관광지</text>
  <rect class="chip" x="122" y="276" width="70" height="24" rx="12"></rect><text class="chiptx" x="134" y="292">음식점</text>
  <rect class="chip" x="200" y="276" width="58" height="24" rx="12"></rect><text class="chiptx" x="212" y="292">숙박</text>
  <rect class="chip" x="266" y="276" width="70" height="24" rx="12"></rect><text class="chiptx" x="278" y="292">레포츠</text>
  <text class="lbl" x="44" y="330">검색 결과 목록</text>
  
  <g>
    <rect class="surface" x="44" y="342" width="390" height="96" rx="6"></rect><rect class="bd" x="44" y="342" width="390" height="96" rx="6"></rect>
    <rect x="56" y="354" width="72" height="72" rx="4" fill="#EEE"></rect>
    <text class="tx" x="142" y="372" font-weight="600">경복궁</text>
    <text class="mut" x="142" y="392">서울 종로구 · 관광지</text>
    <rect class="chip" x="142" y="404" width="92" height="22" rx="11"></rect><text class="chiptx" x="152" y="419">＋ 일정에 추가</text>
  </g>
  <g transform="translate(0,108)">
    <rect class="surface" x="44" y="342" width="390" height="96" rx="6"></rect><rect class="bd" x="44" y="342" width="390" height="96" rx="6"></rect>
    <rect x="56" y="354" width="72" height="72" rx="4" fill="#EEE"></rect>
    <text class="tx" x="142" y="372" font-weight="600">광장시장</text>
    <text class="mut" x="142" y="392">서울 종로구 · 음식점</text>
    <rect class="chip" x="142" y="404" width="92" height="22" rx="11"></rect><text class="chiptx" x="152" y="419">＋ 일정에 추가</text>
  </g>
  <g transform="translate(0,216)">
    <rect class="surface" x="44" y="342" width="390" height="96" rx="6"></rect><rect class="bd" x="44" y="342" width="390" height="96" rx="6"></rect>
    <rect x="56" y="354" width="72" height="72" rx="4" fill="#EEE"></rect>
    <text class="tx" x="142" y="372" font-weight="600">북촌 한옥마을</text>
    <text class="mut" x="142" y="392">서울 종로구 · 관광지</text>
    <rect class="chip" x="142" y="404" width="92" height="22" rx="11"></rect><text class="chiptx" x="152" y="419">＋ 일정에 추가</text>
  </g>
  
  <rect x="470" y="104" width="786" height="672" rx="6" fill="#E9EEF2"></rect>
  <rect class="bd" x="470" y="104" width="786" height="672" rx="6"></rect>
  <text class="mut" x="490" y="132">네이버 지도 · 마커 핀 · InfoWindow</text>
  <circle class="pin" cx="700" cy="320" r="9"></circle><circle class="pin" cx="920" cy="430" r="9"></circle>
  <circle class="pin" cx="820" cy="560" r="9"></circle><circle class="pin" cx="1050" cy="300" r="9"></circle>
  <rect class="surface" x="980" y="120" width="260" height="120" rx="6"></rect><rect class="bd" x="980" y="120" width="260" height="120" rx="6"></rect>
  <text class="tx" x="996" y="146" font-weight="600">경복궁</text>
  <text class="mut" x="996" y="168">서울 종로구 사직로 161</text>
  <rect class="chip" x="996" y="184" width="100" height="24" rx="12"></rect><text class="chiptx" x="1008" y="200">상세 보기 →</text>
</svg>